<svg xmlns="http://www.w3.org/2000/svg" xmlns:xlink="http://www.w3.org/1999/xlink"><symbol id="icon-beamed-note" viewBox="0 0 20 20"><path d="M17 1l-.002 13c0 1.243-1.301 3-3.748 3-1.243 0-2.25-.653-2.25-1.875 0-1.589 1.445-2.55 3-2.55.432 0 .754.059 1 .123V5.364L8 6.637V16h-.002c0 1.243-1.301 3-3.748 3C3.007 19 2 18.347 2 17.125c0-1.589 1.445-2.55 3-2.55.432 0 .754.059 1 .123V3l11-2z"/></symbol><symbol id="icon-bell" viewBox="0 0 20 20"><path d="M14.65 8.512c-2.28-4.907-3.466-6.771-7.191-6.693-1.327.027-1.009-.962-2.021-.587-1.01.375-.143.924-1.177 1.773-2.902 2.383-2.635 4.587-1.289 9.84.567 2.213-1.367 2.321-.602 4.465.559 1.564 4.679 2.219 9.025.607 4.347-1.613 7.086-4.814 6.527-6.378-.765-2.145-2.311-.961-3.272-3.027zm-3.726 8.083c-3.882 1.44-7.072.594-7.207.217-.232-.65 1.253-2.816 5.691-4.463 4.438-1.647 6.915-1.036 7.174-.311.153.429-1.775 3.116-5.658 4.557zm-1.248-3.494c-2.029.753-3.439 1.614-4.353 2.389.643.584 1.847.726 3.046.281 1.527-.565 2.466-1.866 2.095-2.904l-.016-.036c-.251.082-.508.171-.772.27z"/></symbol><symbol id="icon-burger" viewBox="0 0 29 22"><path fill="#000" d="M0 0h29v2H0zM0 10h29v2H0z"/><path fill="#000" stroke="#000" d="M.5 20.5h28v1H.5z"/></symbol><symbol id="icon-cart" viewBox="0 0 24 21"><path d="M18.75 16.5a2.26 2.26 0 011.594.656 2.26 2.26 0 010 3.188 2.26 2.26 0 01-3.188 0 2.26 2.26 0 01-.656-1.594c0-.242.043-.492.129-.75H10.37c.086.258.129.508.129.75a2.259 2.259 0 01-.656 1.594 2.258 2.258 0 01-3.188 0 2.259 2.259 0 01-.316-2.79c.226-.366.539-.644.937-.831L2.215 1.5H0V0h3.293l.996 3H24l-3.492 10.5H7.793l.996 3h9.961zM4.793 4.5L7.289 12h12.129l2.496-7.5H4.793zM9 18.75a.72.72 0 00-.223-.527A.72.72 0 008.25 18a.72.72 0 00-.527.223.72.72 0 00-.223.527.72.72 0 00.223.527.72.72 0 00.527.223.72.72 0 00.527-.223A.72.72 0 009 18.75zm9.75.75a.72.72 0 00.527-.223.72.72 0 00.223-.527.72.72 0 00-.223-.527.72.72 0 00-.527-.223.72.72 0 00-.527.223.72.72 0 00-.223.527.72.72 0 00.223.527.72.72 0 00.527.223z"/></symbol><symbol id="icon-chat" viewBox="0 0 20 20"><path d="M5.8 12.2V6H2C.9 6 0 6.9 0 8v6c0 1.1.9 2 2 2h1v3l3-3h5c1.1 0 2-.9 2-2v-1.82a.943.943 0 01-.2.021h-7V12.2zM18 1H9c-1.1 0-2 .9-2 2v8h7l3 3v-3h1c1.1 0 2-.899 2-2V3c0-1.1-.9-2-2-2z"/></symbol><symbol id="icon-close" viewBox="0 0 19 18"><path d="M10.756 9l7.944 7.963L17.664 18l-7.956-7.951L1.753 18 .717 16.963 8.66 9 .717 1.037 1.753 0l7.955 7.951L17.664 0 18.7 1.037 10.756 9z"/></symbol><symbol id="icon-minus" viewBox="0 0 21 20"><path d="M10.888 0c.916 0 1.8.118 2.654.354a9.694 9.694 0 012.383 1.01c.735.438 1.408.959 2.019 1.563a9.59 9.59 0 011.561 2.02c.43.744.767 1.543 1.01 2.397.242.854.364 1.74.364 2.656 0 .917-.118 1.802-.354 2.656a9.711 9.711 0 01-1.01 2.386 10.48 10.48 0 01-1.56 2.02 9.59 9.59 0 01-2.02 1.563c-.742.43-1.54.767-2.393 1.01a9.64 9.64 0 01-2.654.365c-.916 0-1.8-.118-2.654-.354a9.692 9.692 0 01-2.383-1.01 10.47 10.47 0 01-2.02-1.563 9.59 9.59 0 01-1.56-2.02 10.535 10.535 0 01-1.01-2.386A9.632 9.632 0 01.897 10c0-.917.118-1.802.354-2.656a9.711 9.711 0 011.01-2.386 10.48 10.48 0 011.56-2.02 9.584 9.584 0 012.02-1.563C6.582.945 7.376.608 8.223.365A9.607 9.607 0 0110.888 0zm0 18.667c.798 0 1.564-.101 2.3-.302a8.405 8.405 0 002.07-.875 8.792 8.792 0 001.75-1.355 8.79 8.79 0 001.352-1.75 8.418 8.418 0 00.874-2.072A9.033 9.033 0 0019.547 10c0-.799-.1-1.566-.302-2.302a8.422 8.422 0 00-.874-2.073 8.787 8.787 0 00-1.353-1.75 8.783 8.783 0 00-1.749-1.354 8.403 8.403 0 00-2.07-.875 9.007 9.007 0 00-2.311-.313c-.798 0-1.565.101-2.3.302a8.402 8.402 0 00-2.071.875 8.786 8.786 0 00-1.749 1.355 8.793 8.793 0 00-1.352 1.75 8.418 8.418 0 00-.875 2.072A9.03 9.03 0 002.23 10c0 .799.1 1.566.302 2.302.201.736.493 1.427.874 2.073.382.646.833 1.23 1.353 1.75a8.79 8.79 0 001.748 1.354 8.405 8.405 0 002.072.875 9.008 9.008 0 002.31.313zM4.893 9.333h11.99v1.334H4.892V9.333z"/></symbol><symbol id="icon-plus" viewBox="0 0 21 20"><path d="M10.83 0c.918 0 1.802.117 2.654.352a9.443 9.443 0 012.38 1.015c.736.443 1.41.964 2.02 1.563a9.52 9.52 0 011.571 2.021 10.077 10.077 0 011.015 7.705 9.46 9.46 0 01-1.015 2.383c-.442.736-.962 1.41-1.56 2.022a9.512 9.512 0 01-2.02 1.572 10.057 10.057 0 01-7.698 1.015 9.833 9.833 0 01-2.39-1.005 10.038 10.038 0 01-2.02-1.563 9.925 9.925 0 01-1.561-2.031A10.118 10.118 0 011.2 12.666a10.149 10.149 0 01-.01-5.322A9.46 9.46 0 012.206 4.96c.442-.736.962-1.41 1.56-2.022a9.513 9.513 0 012.02-1.572A10.056 10.056 0 0110.831 0zm0 18.75c.807 0 1.581-.104 2.323-.313a8.974 8.974 0 002.088-.878 8.382 8.382 0 001.765-1.368 9.225 9.225 0 001.366-1.767 8.53 8.53 0 00.888-2.09A8.675 8.675 0 0019.573 10c0-.807-.105-1.582-.313-2.324a8.998 8.998 0 00-.878-2.09 8.39 8.39 0 00-1.366-1.768 9.222 9.222 0 00-1.766-1.367 8.515 8.515 0 00-2.088-.889 8.65 8.65 0 00-2.332-.312c-.806 0-1.58.104-2.322.313a8.976 8.976 0 00-2.088.878c-.65.378-1.239.834-1.766 1.368A9.229 9.229 0 003.29 5.576a8.53 8.53 0 00-.888 2.09A8.673 8.673 0 002.088 10c0 .807.105 1.582.313 2.324.208.742.5 1.439.878 2.09a8.728 8.728 0 003.132 3.144 8.745 8.745 0 004.42 1.192zm.625-9.385h4.37v1.25h-4.37V15h-1.249v-4.385H5.835v-1.25h4.371V5h1.249v4.365z"/></symbol><symbol id="icon-search" viewBox="0 0 24 24"><path d="M15.75 0a8.15 8.15 0 014.16 1.125c.61.36 1.164.79 1.664 1.29s.934 1.058 1.301 1.675c.367.617.645 1.273.832 1.969.188.695.285 1.425.293 2.191a8.15 8.15 0 01-1.125 4.16c-.36.61-.79 1.164-1.29 1.664s-1.058.934-1.675 1.301a7.809 7.809 0 01-1.969.832 8.726 8.726 0 01-2.191.293c-.977 0-1.91-.164-2.8-.492a8.606 8.606 0 01-2.473-1.418l-9.2 9.187A.72.72 0 01.75 24a.72.72 0 01-.527-.223A.72.72 0 010 23.25a.72.72 0 01.223-.527l9.187-9.2a8.445 8.445 0 01-1.418-2.46A8.07 8.07 0 017.5 8.25a8.15 8.15 0 011.125-4.16c.36-.61.79-1.164 1.29-1.664s1.058-.934 1.675-1.301a7.81 7.81 0 011.969-.832A8.727 8.727 0 0115.75 0zm0 15a6.676 6.676 0 004.77-1.98 6.95 6.95 0 001.44-2.145 6.68 6.68 0 00.54-2.625 6.677 6.677 0 00-1.98-4.77 6.952 6.952 0 00-2.145-1.44 6.681 6.681 0 00-2.625-.54 6.676 6.676 0 00-4.77 1.98 6.952 6.952 0 00-1.44 2.145A6.681 6.681 0 009 8.25a6.676 6.676 0 001.98 4.77 6.95 6.95 0 002.145 1.44 6.68 6.68 0 002.625.54z"/></symbol></svg>